<?xml version="1.0" encoding="utf-8" ?>
<svg baseProfile="full" height="507px" version="1.1" viewBox="0 0 545 507" width="545px" xmlns="http://www.w3.org/2000/svg" xmlns:ev="http://www.w3.org/2001/xml-events" xmlns:xlink="http://www.w3.org/1999/xlink"><defs /><path d="M 10 496 L 423 495 L 360 387 L 308 387 L 343 448 L 342 451 L 92 451 L 90 449 L 125 387 L 73 387 Z M 122 431 L 311 430 L 286 387 L 238 387 L 201 385 L 226 342 L 226 336 L 206 356 L 198 341 L 167 368 L 165 367 L 217 278 L 241 316 L 242 311 L 218 269 L 216 268 Z M 164 368 L 166 368 Z M 328 204 L 304 244 L 304 251 L 306 251 L 328 212 L 368 281 L 366 282 L 349 268 L 345 291 L 341 282 L 334 256 L 319 272 L 314 260 L 312 261 L 311 264 L 344 321 L 259 322 L 234 366 L 422 367 L 419 359 L 337 217 Z M 216 139 L 122 302 L 174 303 L 211 238 L 217 230 L 260 303 L 311 303 L 310 299 L 221 145 Z M 269 241 L 271 241 Z M 163 240 L 165 240 Z M 164 239 L 166 239 Z M 217 149 L 270 239 L 269 241 L 246 222 L 241 251 L 239 253 L 225 207 L 205 228 L 198 213 L 196 213 L 166 239 L 165 238 Z M 328 75 L 266 181 L 266 186 L 291 228 L 328 166 L 330 167 L 455 384 L 454 386 L 383 387 L 406 429 L 408 431 L 534 431 L 530 422 L 332 79 Z M 274 174 L 276 174 Z M 275 173 L 277 173 Z M 328 83 L 382 174 L 380 175 L 357 156 L 351 187 L 348 182 L 336 141 L 316 161 L 308 146 L 277 173 L 276 172 Z M 216 10 L 207 23 L 13 359 L 10 367 L 136 367 L 161 322 L 96 322 L 90 321 L 89 319 L 214 102 L 217 102 L 253 164 L 279 119 Z M 269 111 L 271 111 Z M 163 110 L 165 110 Z M 164 109 L 166 109 Z M 217 19 L 270 109 L 269 111 L 246 92 L 240 123 L 237 119 L 225 77 L 205 98 L 198 83 L 196 83 L 166 109 L 165 108 Z" fill="currentColor" fill-rule="evenodd" /></svg>