<?xml version="1.0" encoding="utf-8" ?>
<svg baseProfile="full" height="524px" version="1.1" viewBox="0 0 567 524" width="567px" xmlns="http://www.w3.org/2000/svg" xmlns:ev="http://www.w3.org/2001/xml-events" xmlns:xlink="http://www.w3.org/1999/xlink"><defs /><path d="M 231 173 L 181 260 L 213 233 L 215 235 L 219 245 L 221 246 L 239 228 L 252 272 L 254 268 L 257 245 L 259 242 L 283 262 L 283 260 Z M 284 198 L 316 171 L 324 185 L 342 166 L 356 211 L 360 185 L 362 180 L 387 200 L 335 112 L 332 115 Z M 231 53 L 181 139 L 213 112 L 221 126 L 238 107 L 240 109 L 253 152 L 257 125 L 259 121 L 283 141 L 237 61 Z M 231 10 L 10 392 L 75 393 L 77 395 L 10 512 L 453 512 L 420 455 L 421 453 L 555 453 L 556 451 L 335 69 L 305 121 L 300 127 L 236 16 Z M 40 494 L 98 394 L 146 395 L 113 453 L 349 453 L 344 442 L 316 395 L 364 394 L 423 495 L 42 496 Z M 231 284 L 245 306 L 255 326 L 253 328 L 232 293 L 181 380 L 212 353 L 215 353 L 221 366 L 239 347 L 241 350 L 217 393 L 295 394 L 317 431 L 317 435 L 164 436 L 144 434 Z M 335 224 L 422 374 L 420 376 L 252 376 L 248 374 L 271 334 L 350 333 L 319 279 L 321 277 L 327 287 L 340 273 L 350 307 L 355 284 L 373 299 L 335 232 L 316 265 L 313 268 L 311 266 Z M 231 165 L 233 166 L 313 304 L 319 315 L 318 316 L 271 316 L 232 249 L 229 251 L 194 313 L 191 316 L 144 315 Z M 335 104 L 526 434 L 525 435 L 410 436 L 407 433 L 386 395 L 448 394 L 453 392 L 336 189 L 334 189 L 301 246 L 298 244 L 279 211 L 277 204 Z M 231 45 L 289 145 L 279 164 L 265 187 L 232 130 L 230 129 L 228 131 L 112 333 L 179 334 L 179 337 L 156 376 L 40 376 L 39 375 L 65 329 L 225 52 Z" fill="#161E24" fill-rule="evenodd" /></svg>